<?xml version="1.0" standalone="no"?>
<!DOCTYPE svg PUBLIC "-//W3C//DTD SVG 20010904//EN"
 "http://www.w3.org/TR/2001/REC-SVG-20010904/DTD/svg10.dtd">
<svg version="1.0" xmlns="http://www.w3.org/2000/svg"
 width="128.000000pt" height="128.000000pt" viewBox="0 0 128.000000 128.000000"
 preserveAspectRatio="xMidYMid meet">

<g transform="translate(0.000000,128.000000) scale(0.100000,-0.100000)"
fill="#000000" stroke="none">
<path d="M481 1224 c-199 -53 -373 -230 -425 -430 -20 -78 -21 -232 -1 -307
54 -206 223 -376 430 -432 78 -21 232 -21 310 0 141 38 287 145 359 263 61
100 87 199 88 322 0 93 -4 119 -29 192 -68 195 -224 342 -418 393 -74 19 -241
19 -314 -1z m255 -411 c145 -93 264 -170 264 -173 0 -6 -504 -328 -526 -337
-12 -4 -14 45 -14 336 0 188 3 341 6 341 4 0 125 -75 270 -167z"/>
</g>
</svg>
