<?xml version="1.0" standalone="no"?>
<!DOCTYPE svg PUBLIC "-//W3C//DTD SVG 20010904//EN"
 "http://www.w3.org/TR/2001/REC-SVG-20010904/DTD/svg10.dtd">
<svg version="1.0" xmlns="http://www.w3.org/2000/svg"
 width="120.000000pt" height="120.000000pt" viewBox="0 0 120.000000 120.000000"
 preserveAspectRatio="xMidYMid meet">
<metadata>
Created by potrace 1.16, written by Peter Selinger 2001-2019
</metadata>
<g transform="translate(0.000000,120.000000) scale(0.100000,-0.100000)"
fill="#000000" stroke="none">
<path d="M480 1174 c-172 -36 -324 -153 -400 -307 -66 -134 -83 -249 -55 -382
48 -231 229 -412 460 -460 133 -28 248 -11 382 55 196 97 317 295 317 520 0
225 -121 423 -317 520 -134 66 -254 83 -387 54z m227 -108 c184 -49 325 -204
353 -390 48 -311 -232 -588 -541 -536 -180 31 -339 173 -383 345 -66 251 85
512 335 579 69 19 170 20 236 2z"/>
<path d="M530 1043 c-100 -17 -202 -73 -268 -148 -211 -240 -97 -620 213 -710
44 -13 81 -16 148 -12 75 4 99 10 161 40 221 110 308 370 199 594 -33 67 -113
149 -182 186 -77 42 -192 63 -271 50z m130 -306 c104 -79 136 -108 138 -128 3
-22 -15 -39 -138 -132 -78 -59 -149 -107 -159 -107 -38 0 -41 17 -41 235 0
221 3 235 45 235 11 0 81 -46 155 -103z"/>
<path d="M490 611 c0 -110 4 -202 8 -205 8 -5 265 186 269 201 2 9 -251 203
-267 203 -6 0 -10 -68 -10 -199z"/>
</g>
</svg>
