<?xml version="1.0" standalone="no"?>
<!DOCTYPE svg PUBLIC "-//W3C//DTD SVG 20010904//EN"
 "http://www.w3.org/TR/2001/REC-SVG-20010904/DTD/svg10.dtd">
<svg version="1.0" xmlns="http://www.w3.org/2000/svg"
 width="128.000000pt" height="128.000000pt" viewBox="0 0 128.000000 128.000000"
 preserveAspectRatio="xMidYMid meet">

<g transform="translate(0.000000,128.000000) scale(0.100000,-0.100000)"
fill="#000000" stroke="none">
<path d="M520 1255 c-251 -46 -455 -258 -498 -518 -14 -88 -14 -106 0 -194 34
-203 158 -373 339 -462 125 -62 243 -80 376 -59 203 34 373 158 462 339 90
182 90 376 0 558 -85 173 -257 303 -444 336 -97 17 -138 17 -235 0z m-132
-451 c50 -85 45 -84 84 -18 l34 59 65 0 64 0 0 -240 0 -240 -65 0 -65 0 -5
133 -5 133 -19 -35 c-26 -48 -55 -48 -81 1 l-20 37 -5 -135 -5 -134 -62 -3
c-39 -2 -63 1 -63 8 0 5 0 111 0 235 0 124 0 230 0 235 0 6 27 10 60 10 l60 0
28 -46z m450 -51 l3 -93 34 0 34 0 3 93 3 92 65 0 65 0 0 -240 0 -240 -65 0
-65 0 -3 93 -3 92 -34 0 -34 0 -3 -92 -3 -93 -60 0 -60 0 -3 230 c-1 126 0
236 3 243 3 9 22 12 62 10 l58 -3 3 -92z"/>
</g>
</svg>
